<?xml version="1.0" standalone="no"?>
<!DOCTYPE svg PUBLIC "-//W3C//DTD SVG 20010904//EN"
 "http://www.w3.org/TR/2001/REC-SVG-20010904/DTD/svg10.dtd">
<svg version="1.0" xmlns="http://www.w3.org/2000/svg"
 width="1024.000000pt" height="1024.000000pt" viewBox="0 0 1024.000000 1024.000000"
 preserveAspectRatio="xMidYMid meet">
<metadata>
Created by potrace 1.14, written by Peter Selinger 2001-2017
</metadata>
<g transform="translate(0.000000,1024.000000) scale(0.100000,-0.100000)"
fill="#000000" stroke="none">
<path d="M5010 9865 c-25 -7 -62 -19 -83 -28 -31 -13 -250 -138 -379 -217 -18
-11 -40 -23 -48 -27 -11 -5 -330 -189 -420 -243 -84 -49 -614 -357 -940 -545
-30 -18 -100 -58 -155 -90 -55 -32 -114 -66 -131 -75 -17 -10 -253 -146 -525
-302 -575 -332 -925 -533 -1096 -631 -171 -98 -242 -173 -279 -296 -16 -52
-17 -219 -18 -2276 0 -1221 3 -2239 7 -2262 21 -139 120 -262 284 -354 26 -14
104 -59 173 -99 69 -40 145 -84 170 -98 25 -14 135 -77 244 -140 109 -62 215
-123 235 -134 20 -12 50 -29 66 -39 17 -11 37 -22 45 -26 8 -4 96 -54 195
-112 99 -57 194 -112 210 -121 17 -10 73 -42 125 -72 52 -30 115 -66 140 -80
25 -14 110 -63 190 -110 217 -126 470 -273 510 -296 19 -11 91 -52 160 -92 69
-40 152 -88 185 -107 33 -19 65 -38 70 -42 6 -5 35 -22 65 -38 30 -17 107 -61
170 -98 193 -114 283 -166 330 -193 25 -14 90 -52 145 -85 226 -136 310 -168
445 -173 162 -6 199 9 610 249 179 105 339 198 356 207 17 10 124 72 237 139
114 67 211 121 216 121 5 0 11 4 13 8 2 5 28 22 58 39 30 17 109 62 175 100
460 267 614 357 1095 633 223 128 410 236 415 240 6 4 39 23 75 43 36 19 162
91 281 159 119 69 223 128 230 132 8 3 30 16 49 28 19 11 60 34 90 51 180 99
263 196 293 346 9 43 12 612 11 2272 0 2084 -1 2218 -18 2274 -37 126 -98 192
-273 294 -99 57 -378 218 -488 281 -16 9 -75 43 -130 75 -55 32 -190 110 -300
173 -110 64 -297 172 -415 240 -118 69 -233 135 -255 147 -22 13 -107 62 -190
110 -82 48 -163 95 -180 105 -16 9 -193 112 -392 228 -199 116 -382 222 -405
235 -24 14 -122 71 -218 127 -96 56 -188 110 -205 120 -16 9 -82 47 -145 85
-259 151 -297 174 -345 198 -107 54 -234 70 -335 42z m650 -1000 c74 -43 203
-117 285 -165 83 -48 167 -97 188 -109 20 -12 52 -29 70 -40 17 -10 185 -107
372 -215 187 -108 347 -200 355 -206 29 -18 176 -103 230 -133 30 -16 66 -37
80 -47 14 -9 95 -56 182 -105 142 -81 179 -110 130 -101 -15 3 -132 10 -382
21 -217 10 -316 16 -377 20 -60 4 -160 8 -433 20 -41 2 -131 6 -200 10 -69 4
-163 8 -210 10 -47 2 -143 6 -215 10 -71 4 -159 8 -195 10 -36 2 -68 4 -72 4
-5 1 -8 256 -8 567 l0 566 33 -20 c17 -11 93 -55 167 -97z m-875 -461 l0 -554
-30 -1 c-16 -1 -46 -2 -65 -4 -19 -1 -105 -5 -190 -9 -85 -4 -189 -8 -230 -11
-41 -2 -131 -6 -200 -10 -69 -3 -161 -8 -205 -10 -44 -2 -138 -7 -210 -10 -71
-3 -164 -8 -205 -10 -41 -2 -129 -7 -195 -10 -66 -3 -151 -8 -190 -10 -38 -2
-137 -7 -220 -10 -82 -4 -158 -9 -167 -11 -10 -3 -18 -3 -18 0 0 5 106 76 114
76 3 0 39 20 80 45 42 25 79 45 82 45 3 0 30 16 60 35 30 19 56 35 58 35 3 0
50 27 106 60 56 33 104 60 106 60 2 0 23 12 47 27 23 14 67 40 97 56 30 16 63
37 73 45 9 8 17 12 17 8 0 -4 12 1 28 12 22 15 309 181 482 279 19 11 159 91
310 178 151 87 295 169 318 182 24 14 65 37 90 52 26 16 49 26 52 24 3 -3 5
-254 5 -559z m-279 -1263 c-9 -10 -16 -20 -16 -23 0 -3 -64 -115 -141 -249
-78 -134 -151 -260 -162 -279 -45 -81 -362 -628 -491 -849 -36 -62 -66 -115
-66 -118 0 -3 -8 -17 -19 -31 -10 -15 -29 -47 -43 -72 -14 -25 -76 -133 -138
-240 -63 -107 -118 -204 -124 -215 -6 -11 -30 -51 -53 -90 -23 -38 -114 -196
-203 -350 -89 -154 -169 -291 -177 -304 -15 -24 -16 -22 -59 85 -25 60 -51
123 -59 141 -8 17 -15 36 -15 42 0 6 -5 19 -10 29 -11 19 -118 278 -125 302
-2 8 -56 143 -120 300 -64 157 -134 330 -156 385 -23 55 -45 109 -50 120 -5
11 -50 121 -100 245 -224 554 -321 794 -373 920 -30 74 -54 135 -53 136 1 1
76 5 167 9 91 3 192 8 225 10 33 2 125 6 205 10 80 3 179 8 220 10 323 17 398
20 595 29 72 3 171 8 220 11 84 5 147 8 430 21 61 2 144 6 185 8 41 3 143 8
225 11 83 4 151 8 152 9 1 0 34 2 73 3 69 2 71 1 56 -16z m1529 4 c44 -2 134
-7 200 -11 66 -3 154 -7 195 -9 92 -4 316 -14 430 -20 47 -2 141 -7 210 -10
197 -9 302 -14 620 -31 284 -14 441 -21 655 -30 76 -2 141 -7 143 -9 3 -3
-182 -469 -218 -550 -5 -11 -46 -110 -90 -220 -45 -110 -92 -225 -106 -256
-13 -31 -24 -60 -24 -63 0 -4 -8 -26 -19 -49 -10 -23 -69 -168 -131 -322 -61
-154 -120 -299 -131 -322 -10 -24 -19 -47 -19 -51 0 -5 -6 -22 -14 -38 -8 -16
-62 -148 -120 -294 -59 -146 -111 -274 -116 -285 -5 -11 -24 -56 -41 -100 -17
-44 -36 -91 -42 -105 -5 -14 -11 -31 -13 -39 -9 -44 -42 -3 -140 174 -6 11
-77 135 -159 275 -81 140 -159 275 -173 300 -14 25 -42 74 -64 109 -21 34 -38
64 -38 66 0 2 -28 50 -62 107 -33 56 -72 123 -86 148 -22 40 -485 839 -831
1434 -66 115 -121 211 -121 214 0 2 51 1 113 -2 61 -4 148 -9 192 -11z m-877
-348 c45 -83 76 -136 232 -407 80 -140 245 -426 365 -635 245 -427 381 -664
430 -745 18 -30 44 -75 58 -100 27 -48 112 -195 127 -220 12 -18 315 -541 342
-590 11 -19 44 -76 74 -126 29 -50 54 -96 56 -103 2 -8 -455 -12 -1724 -13
-951 -2 -1728 0 -1728 5 0 6 162 286 517 897 30 52 73 127 96 165 22 39 48 82
58 97 11 15 19 30 19 34 0 5 153 273 180 314 5 8 23 40 40 70 17 30 40 71 51
90 44 73 530 919 662 1152 55 97 104 175 108 172 4 -2 21 -28 37 -57z m3488
-2308 c2 -1018 1 -1100 -15 -1096 -9 3 -137 57 -286 119 -148 63 -314 131
-367 152 l-97 38 19 47 c10 25 68 169 129 319 61 151 111 276 111 278 0 2 9
23 19 47 11 23 43 101 71 172 28 72 55 139 60 150 9 18 243 600 320 793 18 45
33 82 34 82 0 0 2 -495 2 -1101z m-7010 1016 c7 -16 27 -66 44 -110 17 -44 35
-89 40 -100 5 -11 48 -117 96 -235 178 -445 396 -986 409 -1015 34 -75 135
-338 132 -341 -2 -2 -95 -41 -208 -88 -274 -113 -460 -191 -504 -212 -41 -19
-54 -11 -49 29 1 12 3 501 4 1087 1 785 4 1058 12 1040 6 -14 17 -38 24 -55z
m5086 -2340 c-3 -5 -71 -91 -152 -190 -80 -99 -195 -241 -255 -315 -60 -74
-112 -137 -115 -140 -3 -3 -50 -61 -105 -129 -55 -69 -110 -136 -122 -150 -18
-22 -306 -377 -423 -522 -19 -23 -55 -68 -80 -98 -25 -31 -102 -126 -170 -211
-69 -85 -135 -166 -147 -180 -13 -14 -23 -29 -23 -35 0 -11 -32 23 -72 77 -15
20 -33 42 -40 50 -11 11 -222 273 -268 332 -8 10 -29 35 -46 55 -16 20 -125
153 -240 296 -116 143 -238 294 -271 335 -231 283 -312 382 -338 416 -16 21
-44 54 -61 74 -47 54 -274 337 -274 341 0 2 722 4 1604 4 1070 0 1602 -3 1598
-10z m983 -129 c17 -7 134 -55 260 -106 127 -51 233 -96 238 -100 4 -3 -77
-55 -180 -115 -223 -130 -480 -278 -543 -313 -25 -14 -57 -33 -72 -43 -14 -11
-30 -19 -35 -19 -5 0 -32 -16 -62 -35 -29 -19 -54 -35 -56 -35 -2 0 -59 -32
-127 -71 -67 -39 -139 -80 -158 -91 -19 -11 -124 -72 -234 -135 -109 -62 -200
-113 -201 -111 -1 2 88 114 199 250 111 137 209 258 219 270 10 13 98 122 195
242 97 120 211 260 252 311 41 50 90 110 108 132 l33 41 67 -30 c37 -16 81
-35 97 -42z m-4987 42 c28 -7 59 -26 90 -57 62 -62 74 -77 206 -277 62 -95
142 -207 177 -250 147 -178 384 -468 461 -564 62 -78 67 -88 32 -64 -36 24
-30 20 -259 152 -104 60 -273 158 -375 217 -102 59 -237 136 -300 172 -63 36
-122 72 -131 80 -9 7 -19 10 -22 6 -4 -3 -7 -1 -7 5 0 7 -5 12 -10 12 -6 0
-27 11 -48 23 -20 13 -98 59 -172 102 -74 43 -151 87 -170 98 -19 11 -46 27
-60 34 -14 8 -42 25 -62 37 l-37 22 204 102 c205 102 340 156 405 159 19 2 54
-3 78 -9z"/>
</g>
</svg>
