<?xml version="1.0" encoding="utf-8"?>
<!-- Generator: Adobe Illustrator 16.0.0, SVG Export Plug-In . SVG Version: 6.00 Build 0)  -->
<!DOCTYPE svg PUBLIC "-//W3C//DTD SVG 1.1//EN" "http://www.w3.org/Graphics/SVG/1.1/DTD/svg11.dtd">
<svg version="1.1" id="Layer_1" xmlns="http://www.w3.org/2000/svg" xmlns:xlink="http://www.w3.org/1999/xlink" x="0px" y="0px"
	 width="256px" height="256px" viewBox="0 0 256 256" enable-background="new 0 0 256 256" xml:space="preserve">
<linearGradient id="SVGID_1_" gradientUnits="userSpaceOnUse" x1="184.626" y1="128.0005" x2="71.375" y2="128.0005">
	<stop  offset="0" style="stop-color:#373737"/>
	<stop  offset="0.4839" style="stop-color:#686868"/>
	<stop  offset="0.7796" style="stop-color:#959595"/>
	<stop  offset="1" style="stop-color:#C9C9C9"/>
</linearGradient>
<path fill="url(#SVGID_1_)" d="M123.33,224.464c-5.509,0-10.244-2.003-14.073-5.953c-3.783-3.902-5.701-8.814-5.701-14.6
	c0-5.813,1.938-10.701,5.759-14.527c3.83-3.827,8.544-5.766,14.015-5.766c5.422,0,10.241,2.014,13.938,5.822
	c3.701,3.826,5.574,8.692,5.574,14.471c0,5.75-1.854,10.641-5.512,14.536C133.63,222.384,128.79,224.464,123.33,224.464z
	 M114.246,164.255c-3.038,0-5.5-2.463-5.5-5.5c0-7.593,1.18-14.393,3.507-20.211c2.299-5.748,5.156-10.599,8.49-14.42
	c3.069-3.521,7.245-7.656,12.411-12.287c6.232-5.575,10.834-10.487,13.68-14.604c2.455-3.541,3.697-8.337,3.697-14.259
	c0-6.449-1.887-11.127-5.768-14.299c-4.158-3.394-10.236-5.116-18.062-5.116c-7.849,0-13.785,1.882-18.147,5.753
	c-4.235,3.756-6.433,9.228-6.718,16.726c-0.113,2.958-2.544,5.291-5.495,5.291c-0.025,0-19.54-0.26-19.54-0.26
	c-1.478-0.02-2.886-0.634-3.907-1.703c-1.021-1.07-1.567-2.506-1.517-3.983c0.569-16.686,6.145-29.993,16.573-39.552
	c10.346-9.484,24.083-14.294,40.828-14.294c16.431,0,29.899,4.117,40.033,12.238c10.494,8.419,15.814,20.472,15.814,35.824
	c0,7.467-1.242,14.136-3.691,19.824c-2.414,5.595-5.522,10.415-9.239,14.329c-3.38,3.562-7.789,7.703-13.104,12.308
	c-4.844,4.175-8.614,7.732-11.219,10.583c-2.379,2.602-4.465,5.836-6.2,9.615c-1.646,3.58-2.48,7.784-2.48,12.497
	c0,3.037-2.463,5.5-5.5,5.5H114.246z"/>
<linearGradient id="SVGID_2_" gradientUnits="userSpaceOnUse" x1="24.8818" y1="187.751" x2="231.2143" y2="68.6249">
	<stop  offset="0" style="stop-color:#373737"/>
	<stop  offset="0.4839" style="stop-color:#686868"/>
	<stop  offset="0.7796" style="stop-color:#959595"/>
	<stop  offset="1" style="stop-color:#C9C9C9"/>
</linearGradient>
<path fill="url(#SVGID_2_)" d="M232.559,142.287c0.008-4.656,0.016-9.313,0.016-13.968c0-4.57-0.004-9.141-0.008-13.711
	c-0.012-12.947-0.022-26.335,0.06-39.495c0.021-3.624-0.651-7.726-5.808-10.688c-28.256-16.217-58.346-33.659-91.988-53.322
	c-2.428-1.419-4.589-2.08-6.799-2.08c-2.142,0-4.282,0.642-6.543,1.961C93.13,27.518,63.015,44.916,29.42,64.171
	c-4.213,2.415-6.083,5.676-6.063,10.572c0.125,39.258,0.119,74.075-0.017,106.438c-0.021,5.237,2.06,8.77,6.749,11.451
	c34.876,19.982,63.298,36.422,89.444,51.73c3.042,1.781,5.729,2.611,8.455,2.611c2.655,0,5.336-0.816,8.2-2.498
	c27.74-16.285,57.166-33.303,89.959-52.023c4.629-2.651,6.574-6.104,6.512-11.542C232.516,168.048,232.536,154.952,232.559,142.287z
	 M65.987,62.428c0.215-0.124,0.43-0.247,0.646-0.371c1.657-0.952,3.313-1.903,4.97-2.855c3.031-6.652,7.237-12.481,12.631-17.426
	c11.394-10.443,26.38-15.739,44.545-15.739c17.712,0,32.339,4.524,43.477,13.45c7.101,5.696,12.089,12.831,14.962,21.303
	l2.855,1.652c-0.784-0.039-1.569-0.079-2.354-0.118c1.566,5.167,2.37,10.813,2.4,16.925c7.287,0.368,14.729,0.732,22.092,1.006
	c0.078,0.003,0.151,0.006,0.224,0.01c-0.033,0.085-0.07,0.174-0.107,0.269c-5.87,14.27-11.739,28.813-17.415,42.877
	c-3.353,8.305-6.81,16.871-10.243,25.323c-4.921-8.482-9.837-16.978-14.754-25.473c-2.304,2.172-4.868,4.483-7.742,6.974
	c-1.898,1.637-3.613,3.165-5.156,4.59c4.966,8.581,9.731,16.784,14.383,24.756c-5.498-0.056-11.522-0.08-18.861-0.08
	c-2.794,0-5.589,0.006-8.383,0.012c-0.391,5.721-5.143,10.242-10.962,10.242h-18.946c-5.822,0-10.574-4.524-10.962-10.248
	c-7.31,0.001-13.294,0.021-18.777,0.067c13.221-22.651,27.044-46.614,43.437-75.297c3.167,5.533,6.229,10.878,9.204,16.063
	c2.139-2.275,3.867-4.362,5.17-6.246c1.8-2.598,2.713-6.339,2.713-11.12c0-1.103-0.069-2.081-0.188-2.963
	c-0.604-1.038-1.209-2.081-1.812-3.117c0.359,0.022,0.721,0.041,1.081,0.063c-0.77-2.083-1.887-3.252-2.823-4.018
	c-3.154-2.574-8.063-3.88-14.588-3.88c-6.443,0-11.186,1.429-14.498,4.367c-1.151,1.021-2.093,2.254-2.834,3.71
	c1.21-0.059,2.42-0.12,3.63-0.178c-1.908,3.307-3.816,6.612-5.722,9.91c-0.311,3.281-2.047,6.122-4.578,7.921
	c-10.988,19.006-21.714,37.508-31.24,53.926c-3.51-8.632-7.001-17.257-10.491-25.881C55.325,108.89,49.492,94.477,43.686,80.31
	c7.534-0.334,15.154-0.711,22.622-1.086c0.656-6.131,2.003-11.805,4.025-17.012C68.888,62.284,67.425,62.356,65.987,62.428z
	 M39.933,171.424c0.037-18.5,0.033-37.271,0.029-55.44v-0.07c6.277,15.602,12.752,31.691,19.168,47.512
	c-5.983,2.383-11.982,4.932-17.787,7.399L39.933,171.424z M50.633,185.338c1.782-0.788,3.544-1.697,5.26-2.585
	c3.807-1.967,7.743-4,10.728-4c0.306,0,0.601,0.022,0.878,0.065c2.662,0.412,5.185,4.365,7.625,8.188
	c1.348,2.111,2.741,4.294,4.332,6.196c4.594,5.504,9.046,11.005,13.625,16.7C78.739,201.631,64.624,193.475,50.633,185.338z
	 M148.342,203.911c0,7.094-2.421,13.422-7.006,18.305c-4.764,5.068-10.99,7.748-18.006,7.748c-6.955,0-13.188-2.637-18.021-7.625
	c-4.744-4.895-7.252-11.266-7.252-18.428c0-4.179,0.858-8.069,2.513-11.545c-0.161-0.197-0.324-0.399-0.485-0.597
	c-4.111-5.057-8.222-10.11-12.328-15.172c7.708-0.02,15.24-0.022,21.078-0.022l9.888,0.002l9.89,0.002l9.215-0.003l9.211-0.002
	c6.303,0,13.688,0.004,21.339,0.035c-4.385,5.404-8.776,10.809-13.17,16.211c-2.307,2.837-4.634,5.699-6.973,8.577
	C148.305,202.224,148.342,203.061,148.342,203.911z M162.871,209.906c8.426-10.403,16.848-20.805,25.262-31.221
	c0.149-0.186,0.268-0.32,0.359-0.422c4.068,1.787,8.232,3.479,12.261,5.116c1.563,0.636,3.158,1.284,4.751,1.938
	C191.285,193.568,176.861,201.861,162.871,209.906z M197.18,163.516c-0.072-0.029-0.14-0.057-0.201-0.082
	c6.403-15.779,12.873-31.836,19.131-47.368c0.027-0.065,0.054-0.13,0.08-0.195c-0.002,0.683-0.002,1.366-0.002,2.048
	c-0.008,17.542-0.017,35.669,0.041,53.524C210.605,169.004,204.521,166.471,197.18,163.516z"/>
</svg>
