<?xml version="1.0" encoding="utf-8"?>
<!-- Generator: Adobe Illustrator 16.0.0, SVG Export Plug-In . SVG Version: 6.00 Build 0)  -->
<!DOCTYPE svg PUBLIC "-//W3C//DTD SVG 1.1//EN" "http://www.w3.org/Graphics/SVG/1.1/DTD/svg11.dtd">
<svg version="1.1" id="Layer_1" xmlns="http://www.w3.org/2000/svg" xmlns:xlink="http://www.w3.org/1999/xlink" x="0px" y="0px"
	 width="256px" height="256px" viewBox="0 0 256 256" enable-background="new 0 0 256 256" xml:space="preserve">
<path fill="#FFFFFF" d="M232.559,142.287c0.008-4.656,0.016-9.313,0.016-13.968c0-4.57-0.004-9.141-0.008-13.711
	c-0.012-12.947-0.022-26.335,0.06-39.495c0.021-3.624-0.651-7.726-5.808-10.688c-28.256-16.217-58.346-33.659-91.988-53.322
	c-2.428-1.419-4.589-2.08-6.799-2.08c-2.142,0-4.282,0.642-6.543,1.961C93.13,27.518,63.015,44.916,29.42,64.171
	c-4.213,2.415-6.083,5.676-6.063,10.572c0.125,39.258,0.119,74.075-0.017,106.438c-0.021,5.237,2.06,8.77,6.749,11.451
	c34.876,19.982,63.298,36.422,89.444,51.73c3.042,1.781,5.729,2.611,8.455,2.611c2.655,0,5.336-0.816,8.2-2.498
	c27.74-16.285,57.166-33.303,89.959-52.023c4.629-2.651,6.574-6.104,6.512-11.542C232.516,168.048,232.536,154.952,232.559,142.287z
	 M39.962,115.984v-0.07c6.277,15.602,12.752,31.691,19.168,47.512c-5.983,2.383-11.982,4.932-17.787,7.399l-1.41,0.599
	C39.97,152.924,39.966,134.152,39.962,115.984z M136.479,37.5c-0.002-2.031-0.004-4.061-0.004-6.091
	c16.225,9.412,32.694,18.94,48.645,28.167l4.953,2.866c-0.942-0.047-1.887-0.094-2.829-0.142
	c-16.646-0.833-33.859-1.693-50.796-2.477c0-0.032,0-0.065,0-0.101C136.494,52.314,136.486,44.783,136.479,37.5z M212.326,80.534
	c-5.87,14.27-11.739,28.813-17.415,42.877c-3.353,8.305-6.81,16.871-10.243,25.323c-5.416-9.336-10.827-18.687-16.238-28.036
	c-8.313-14.363-16.902-29.204-25.398-43.804c7.822,0.479,15.742,0.854,23.412,1.217c3.308,0.157,6.615,0.313,9.922,0.478
	c0.066,0.003,0.133,0.005,0.199,0.005c0.104,0,0.211-0.004,0.313-0.012c3.172,0.155,6.345,0.316,9.517,0.478
	c8.455,0.43,17.196,0.874,25.815,1.195c0.078,0.003,0.151,0.006,0.224,0.01C212.4,80.35,212.363,80.439,212.326,80.534z
	 M188.133,178.686c0.149-0.186,0.268-0.32,0.359-0.422c4.068,1.787,8.232,3.479,12.261,5.116c1.563,0.636,3.158,1.284,4.751,1.938
	c-14.219,8.25-28.643,16.543-42.633,24.588C171.297,199.503,179.719,189.102,188.133,178.686z M112.999,76.958
	c-14.5,25.13-29.051,50.233-41.539,71.757c-3.51-8.632-7.001-17.257-10.491-25.881C55.325,108.89,49.492,94.477,43.686,80.31
	c8.915-0.395,17.966-0.851,26.723-1.292c3.165-0.159,6.33-0.318,9.494-0.476c0.117,0.011,0.235,0.017,0.354,0.017
	c0.063,0,0.126-0.002,0.189-0.005l8.569-0.423C97.012,77.735,105.006,77.339,112.999,76.958z M55.893,182.753
	c3.807-1.967,7.743-4,10.728-4c0.306,0,0.601,0.022,0.878,0.065c2.662,0.412,5.185,4.365,7.625,8.188
	c1.348,2.111,2.741,4.294,4.332,6.196c4.594,5.504,9.046,11.005,13.625,16.7c-14.342-8.271-28.457-16.428-42.448-24.564
	C52.415,184.55,54.177,183.641,55.893,182.753z M152.537,159.501c-4.098,0-8.195,0.008-12.294,0.017
	c-4.093,0.006-8.187,0.015-12.278,0.015c-4.064,0-8.128-0.007-12.193-0.013c-4.07-0.006-8.141-0.013-12.212-0.013
	c-7.438,0-13.5,0.021-19.053,0.067c13.221-22.651,27.044-46.614,43.437-75.297c16.664,29.122,30.494,53.09,43.455,75.304
	C165.9,159.525,159.876,159.501,152.537,159.501z M108.835,176.575l9.888,0.002l9.89,0.002l9.215-0.003l9.211-0.002
	c6.303,0,13.688,0.004,21.339,0.035c-4.385,5.404-8.776,10.809-13.17,16.211c-8.911,10.959-18.124,22.291-27.138,33.484
	c-9.29-11.546-18.793-23.231-27.985-34.535c-4.111-5.057-8.222-10.11-12.328-15.172C95.465,176.578,102.997,176.575,108.835,176.575
	z M119.665,59.799c-17.898,0.85-36.08,1.754-53.678,2.629c0.215-0.124,0.43-0.247,0.646-0.371c5.63-3.236,11.259-6.472,16.888-9.703
	c4.36-2.501,8.722-4.999,13.083-7.496c7.56-4.329,15.366-8.798,23.057-13.229C119.636,42.242,119.638,51.248,119.665,59.799z
	 M216.229,171.443c-5.623-2.439-11.707-4.973-19.049-7.928c-0.072-0.029-0.14-0.057-0.201-0.082
	c6.403-15.779,12.873-31.836,19.131-47.368c0.027-0.065,0.054-0.13,0.08-0.195c-0.002,0.683-0.002,1.366-0.002,2.048
	C216.18,135.461,216.171,153.588,216.229,171.443z"/>
</svg>
